<svg width="175" height="257" viewBox="0 0 175 257" fill="none" xmlns="http://www.w3.org/2000/svg">
<circle cx="87.5" cy="169.5" r="87" stroke="black"/>
<path d="M58.6719 163L56.4502 157.324H49.2969L47.0996 163H45L52.0557 145.08H53.8013L60.8203 163H58.6719ZM55.8032 155.456L53.728 149.926C53.4595 149.226 53.1828 148.368 52.8979 147.351C52.7189 148.132 52.4626 148.99 52.1289 149.926L50.0293 155.456H55.8032Z" fill="black"/>
<path d="M129.095 146.752C127.134 146.752 125.584 147.408 124.444 148.718C123.313 150.02 122.748 151.806 122.748 154.077C122.748 156.412 123.293 158.219 124.383 159.497C125.482 160.766 127.044 161.401 129.071 161.401C130.316 161.401 131.736 161.177 133.331 160.729V162.548C132.094 163.012 130.568 163.244 128.753 163.244C126.125 163.244 124.094 162.447 122.662 160.852C121.238 159.257 120.526 156.99 120.526 154.052C120.526 152.213 120.868 150.602 121.551 149.218C122.243 147.835 123.236 146.769 124.53 146.02C125.832 145.271 127.362 144.897 129.12 144.897C130.991 144.897 132.627 145.239 134.027 145.922L133.148 147.705C131.797 147.07 130.446 146.752 129.095 146.752Z" fill="black"/>
<circle cx="52.5" cy="200.5" r="30" fill="#C4C4C4" fill-opacity="0.59" stroke="black"/>
<circle cx="126.5" cy="200.5" r="30" fill="#C4C4C4" fill-opacity="0.59" stroke="black"/>
<path d="M87.5288 75H85.4536V57.1533H95.4023V58.9966H87.5288V65.5273H94.9263V67.3706H87.5288V75Z" fill="black"/>
</svg>
