<svg width="175" height="257" viewBox="0 0 175 257" fill="none" xmlns="http://www.w3.org/2000/svg">
<circle cx="87.5" cy="169.5" r="87" stroke="black"/>
<path d="M40.475 12.775C40.4583 11.7917 40.3583 10.975 40.175 10.325C39.9917 9.675 39.6667 9.19167 39.2 8.875C38.75 8.54167 38.0917 8.38333 37.225 8.4H35.1L35.075 22.025C35.075 22.9083 35.05 23.5667 35 24C35.35 23.9833 35.6917 23.9667 36.025 23.95C36.375 23.9333 36.725 23.9167 37.075 23.9V25H31.2V24.175C31.8333 24.1417 32.2583 23.9917 32.475 23.725C32.7083 23.4583 32.8333 23.1 32.85 22.65C32.8833 22.1833 32.9 21.6667 32.9 21.1L32.925 8.425L30.35 8.45C29.3 8.45 28.5583 8.8 28.125 9.5C27.6917 10.2 27.475 11.2917 27.475 12.775H26.55L26.7 7.5H41.275L41.425 12.775H40.475ZM48.0705 25.4C46.9038 25.4 45.8455 25.1333 44.8955 24.6C43.9455 24.05 43.1872 23.3 42.6205 22.35C42.0705 21.3833 41.7955 20.2833 41.7955 19.05C41.7955 17.7333 42.0705 16.55 42.6205 15.5C43.1705 14.45 43.9205 13.625 44.8705 13.025C45.8205 12.4083 46.8872 12.1 48.0705 12.1C49.2372 12.1 50.2955 12.3833 51.2455 12.95C52.1955 13.5 52.9538 14.25 53.5205 15.2C54.0872 16.15 54.3705 17.2333 54.3705 18.45C54.3705 19.7333 54.0872 20.9083 53.5205 21.975C52.9705 23.025 52.2205 23.8583 51.2705 24.475C50.3205 25.0917 49.2538 25.4 48.0705 25.4ZM48.2705 24.4C49.1538 24.4 49.8538 24.15 50.3705 23.65C50.8872 23.15 51.2538 22.5 51.4705 21.7C51.7038 20.9 51.8205 20.0583 51.8205 19.175C51.8205 18.425 51.7455 17.6917 51.5955 16.975C51.4622 16.2417 51.2455 15.5833 50.9455 15C50.6455 14.4 50.2538 13.925 49.7705 13.575C49.3038 13.225 48.7372 13.05 48.0705 13.05C47.2038 13.05 46.4955 13.3 45.9455 13.8C45.3955 14.3 44.9872 14.95 44.7205 15.75C44.4705 16.55 44.3455 17.4083 44.3455 18.325C44.3455 19.3583 44.4872 20.3417 44.7705 21.275C45.0538 22.1917 45.4872 22.9417 46.0705 23.525C46.6538 24.1083 47.3872 24.4 48.2705 24.4ZM61.8445 25.4C60.8279 25.4 59.9112 25.15 59.0945 24.65C58.2779 24.1333 57.6279 23.4 57.1445 22.45C56.6779 21.5 56.4445 20.3833 56.4445 19.1C56.4445 17.7333 56.7195 16.525 57.2695 15.475C57.8195 14.425 58.5779 13.6 59.5445 13C60.5279 12.4 61.6362 12.1 62.8695 12.1C63.4195 12.1 63.9612 12.175 64.4945 12.325C65.0445 12.4583 65.4779 12.6167 65.7945 12.8V9.375C65.7945 9.10833 65.7945 8.85833 65.7945 8.625C65.8112 8.375 65.8362 8.08333 65.8695 7.75C65.5695 7.76667 65.2695 7.78333 64.9695 7.8C64.6862 7.81667 64.3945 7.83333 64.0945 7.85V6.8C64.8279 6.8 65.3945 6.76667 65.7945 6.7C66.1945 6.63333 66.4945 6.55 66.6945 6.45C66.9112 6.35 67.0779 6.24167 67.1945 6.125H67.9195V22.35C67.9195 22.6167 67.9112 22.8833 67.8945 23.15C67.8779 23.4167 67.8529 23.7167 67.8195 24.05C68.1195 24.0333 68.4112 24.0167 68.6945 24C68.9945 23.9833 69.2945 23.9667 69.5945 23.95V25H66.0195C65.9362 24.55 65.8779 24.1167 65.8445 23.7C65.3779 24.2167 64.8029 24.6333 64.1195 24.95C63.4362 25.25 62.6779 25.4 61.8445 25.4ZM62.7445 24.175C63.2945 24.175 63.8445 24.0167 64.3945 23.7C64.9612 23.3833 65.4279 22.9917 65.7945 22.525C65.7779 22.325 65.7695 22.1167 65.7695 21.9C65.7695 21.6667 65.7695 21.4167 65.7695 21.15L65.7945 13.95C65.3945 13.65 64.9529 13.4333 64.4695 13.3C64.0029 13.15 63.5195 13.075 63.0195 13.075C62.1862 13.075 61.4612 13.3167 60.8445 13.8C60.2279 14.2833 59.7612 14.9583 59.4445 15.825C59.1279 16.6917 58.9862 17.7083 59.0195 18.875C59.0529 19.8917 59.2112 20.8 59.4945 21.6C59.7945 22.4 60.2112 23.0333 60.7445 23.5C61.2945 23.95 61.9612 24.175 62.7445 24.175ZM77.6359 25.4C76.4693 25.4 75.4109 25.1333 74.4609 24.6C73.5109 24.05 72.7526 23.3 72.1859 22.35C71.6359 21.3833 71.3609 20.2833 71.3609 19.05C71.3609 17.7333 71.6359 16.55 72.1859 15.5C72.7359 14.45 73.4859 13.625 74.4359 13.025C75.3859 12.4083 76.4526 12.1 77.6359 12.1C78.8026 12.1 79.8609 12.3833 80.8109 12.95C81.7609 13.5 82.5193 14.25 83.0859 15.2C83.6526 16.15 83.9359 17.2333 83.9359 18.45C83.9359 19.7333 83.6526 20.9083 83.0859 21.975C82.5359 23.025 81.7859 23.8583 80.8359 24.475C79.8859 25.0917 78.8193 25.4 77.6359 25.4ZM77.8359 24.4C78.7193 24.4 79.4193 24.15 79.9359 23.65C80.4526 23.15 80.8193 22.5 81.0359 21.7C81.2693 20.9 81.3859 20.0583 81.3859 19.175C81.3859 18.425 81.3109 17.6917 81.1609 16.975C81.0276 16.2417 80.8109 15.5833 80.5109 15C80.2109 14.4 79.8193 13.925 79.3359 13.575C78.8693 13.225 78.3026 13.05 77.6359 13.05C76.7693 13.05 76.0609 13.3 75.5109 13.8C74.9609 14.3 74.5526 14.95 74.2859 15.75C74.0359 16.55 73.9109 17.4083 73.9109 18.325C73.9109 19.3583 74.0526 20.3417 74.3359 21.275C74.6193 22.1917 75.0526 22.9417 75.6359 23.525C76.2193 24.1083 76.9526 24.4 77.8359 24.4ZM106.727 13.075C106.561 11.5083 106.011 10.2917 105.077 9.425C104.161 8.55833 102.977 8.125 101.527 8.125C100.344 8.125 99.269 8.45833 98.3023 9.125C97.3357 9.775 96.5607 10.7 95.9773 11.9C95.4107 13.1 95.1273 14.5167 95.1273 16.15C95.1273 17.7167 95.4273 19.1 96.0273 20.3C96.6273 21.5 97.4357 22.4333 98.4523 23.1C99.469 23.7667 100.594 24.1 101.827 24.1C102.911 24.1 103.977 23.8583 105.027 23.375C106.077 22.875 106.936 22.1583 107.602 21.225L108.252 21.75C107.536 22.7333 106.761 23.4917 105.927 24.025C105.094 24.5583 104.261 24.9167 103.427 25.1C102.611 25.3 101.861 25.4 101.177 25.4C99.9273 25.4 98.7773 25.175 97.7273 24.725C96.694 24.275 95.794 23.65 95.0273 22.85C94.2773 22.0333 93.694 21.0917 93.2773 20.025C92.8773 18.9417 92.6773 17.775 92.6773 16.525C92.6773 15.3417 92.8523 14.1917 93.2023 13.075C93.569 11.9583 94.1107 10.95 94.8273 10.05C95.544 9.15 96.444 8.43333 97.5273 7.9C98.6273 7.36667 99.9023 7.1 101.352 7.1C103.186 7.1 104.869 7.60833 106.402 8.625L106.277 7.275H107.627V13.075H106.727ZM122.725 25.4C121.575 25.4 120.534 25.1333 119.6 24.6C118.684 24.05 117.959 23.2833 117.425 22.3C116.892 21.3 116.625 20.125 116.625 18.775C116.625 17.6083 116.884 16.5167 117.4 15.5C117.934 14.4833 118.675 13.6667 119.625 13.05C120.575 12.4167 121.675 12.1 122.925 12.1C123.859 12.1 124.709 12.3 125.475 12.7C126.242 13.1 126.85 13.7083 127.3 14.525C127.767 15.3417 128 16.375 128 17.625L119.2 17.775C119.184 19.6917 119.5 21.2333 120.15 22.4C120.8 23.55 121.859 24.125 123.325 24.125C123.842 24.125 124.367 24.0333 124.9 23.85C125.45 23.6667 125.959 23.4167 126.425 23.1C126.892 22.7833 127.267 22.4333 127.55 22.05L128.15 22.55C127.7 23.25 127.159 23.8083 126.525 24.225C125.892 24.6417 125.242 24.9417 124.575 25.125C123.909 25.3083 123.292 25.4 122.725 25.4ZM119.275 16.725H125.65C125.65 16.125 125.559 15.55 125.375 15C125.209 14.4333 124.925 13.975 124.525 13.625C124.125 13.2583 123.6 13.075 122.95 13.075C121.984 13.075 121.175 13.3667 120.525 13.95C119.892 14.5167 119.475 15.4417 119.275 16.725ZM121.25 10.5L120.55 9.925L122.65 6.55C122.9 6.18333 123.142 5.975 123.375 5.925C123.609 5.85833 123.809 5.85833 123.975 5.925C124.142 5.99167 124.242 6.04167 124.275 6.075C124.342 6.125 124.417 6.23333 124.5 6.4C124.584 6.56667 124.6 6.775 124.55 7.025C124.517 7.25833 124.35 7.53333 124.05 7.85L121.25 10.5ZM137.067 25V24.175C137.701 24.1417 138.134 24 138.367 23.75C138.601 23.4833 138.726 23.125 138.742 22.675C138.776 22.2083 138.792 21.6833 138.792 21.1V10.3C138.792 9.6 138.817 9 138.867 8.5C138.567 8.51667 138.267 8.53333 137.967 8.55C137.667 8.56667 137.367 8.58333 137.067 8.6V7.5H148.667L148.792 11.875H147.967C147.967 10.8917 147.809 10.15 147.492 9.65C147.176 9.13333 146.759 8.79167 146.242 8.625C145.726 8.44167 145.151 8.35833 144.517 8.375L142.692 8.425C142.076 8.44167 141.651 8.59167 141.417 8.875C141.184 9.14167 141.051 9.5 141.017 9.95C140.984 10.4 140.967 10.9167 140.967 11.5V15.8L145.317 15.825L145.142 13.65H146.242V18.925H145.442C145.442 18.175 145.334 17.6417 145.117 17.325C144.917 17.0083 144.601 16.8167 144.167 16.75C143.734 16.6833 143.167 16.6667 142.467 16.7L140.967 16.775V22.025C140.967 22.9083 140.942 23.5667 140.892 24C141.326 23.9833 141.751 23.9667 142.167 23.95C142.601 23.9333 143.026 23.9167 143.442 23.9V25H137.067Z" fill="black"/>
<path d="M90.0952 146.752C88.134 146.752 86.5837 147.408 85.4443 148.718C84.3132 150.02 83.7476 151.806 83.7476 154.077C83.7476 156.412 84.2928 158.219 85.3833 159.497C86.4819 160.766 88.0444 161.401 90.0708 161.401C91.3159 161.401 92.736 161.177 94.3311 160.729V162.548C93.0941 163.012 91.5682 163.244 89.7534 163.244C87.1248 163.244 85.0944 162.447 83.6621 160.852C82.238 159.257 81.5259 156.99 81.5259 154.052C81.5259 152.213 81.8677 150.602 82.5513 149.218C83.243 147.835 84.2358 146.769 85.5298 146.02C86.8319 145.271 88.3618 144.897 90.1196 144.897C91.9914 144.897 93.6271 145.239 95.0269 145.922L94.1479 147.705C92.797 147.07 91.4461 146.752 90.0952 146.752Z" fill="black"/>
<circle cx="88" cy="210" r="39.5" fill="#C4C4C4" fill-opacity="0.59" stroke="black"/>
<path d="M87.5288 75H85.4536V57.1533H95.4023V58.9966H87.5288V65.5273H94.9263V67.3706H87.5288V75Z" fill="black"/>
</svg>
