<svg width="175" height="257" viewBox="0 0 175 257" fill="none" xmlns="http://www.w3.org/2000/svg">
<circle cx="87.5" cy="169.5" r="87" stroke="black"/>
<path d="M40.475 12.775C40.4583 11.7917 40.3583 10.975 40.175 10.325C39.9917 9.675 39.6667 9.19167 39.2 8.875C38.75 8.54167 38.0917 8.38333 37.225 8.4H35.1L35.075 22.025C35.075 22.9083 35.05 23.5667 35 24C35.35 23.9833 35.6917 23.9667 36.025 23.95C36.375 23.9333 36.725 23.9167 37.075 23.9V25H31.2V24.175C31.8333 24.1417 32.2583 23.9917 32.475 23.725C32.7083 23.4583 32.8333 23.1 32.85 22.65C32.8833 22.1833 32.9 21.6667 32.9 21.1L32.925 8.425L30.35 8.45C29.3 8.45 28.5583 8.8 28.125 9.5C27.6917 10.2 27.475 11.2917 27.475 12.775H26.55L26.7 7.5H41.275L41.425 12.775H40.475ZM48.0705 25.4C46.9038 25.4 45.8455 25.1333 44.8955 24.6C43.9455 24.05 43.1872 23.3 42.6205 22.35C42.0705 21.3833 41.7955 20.2833 41.7955 19.05C41.7955 17.7333 42.0705 16.55 42.6205 15.5C43.1705 14.45 43.9205 13.625 44.8705 13.025C45.8205 12.4083 46.8872 12.1 48.0705 12.1C49.2372 12.1 50.2955 12.3833 51.2455 12.95C52.1955 13.5 52.9538 14.25 53.5205 15.2C54.0872 16.15 54.3705 17.2333 54.3705 18.45C54.3705 19.7333 54.0872 20.9083 53.5205 21.975C52.9705 23.025 52.2205 23.8583 51.2705 24.475C50.3205 25.0917 49.2538 25.4 48.0705 25.4ZM48.2705 24.4C49.1538 24.4 49.8538 24.15 50.3705 23.65C50.8872 23.15 51.2538 22.5 51.4705 21.7C51.7038 20.9 51.8205 20.0583 51.8205 19.175C51.8205 18.425 51.7455 17.6917 51.5955 16.975C51.4622 16.2417 51.2455 15.5833 50.9455 15C50.6455 14.4 50.2538 13.925 49.7705 13.575C49.3038 13.225 48.7372 13.05 48.0705 13.05C47.2038 13.05 46.4955 13.3 45.9455 13.8C45.3955 14.3 44.9872 14.95 44.7205 15.75C44.4705 16.55 44.3455 17.4083 44.3455 18.325C44.3455 19.3583 44.4872 20.3417 44.7705 21.275C45.0538 22.1917 45.4872 22.9417 46.0705 23.525C46.6538 24.1083 47.3872 24.4 48.2705 24.4ZM61.8445 25.4C60.8279 25.4 59.9112 25.15 59.0945 24.65C58.2779 24.1333 57.6279 23.4 57.1445 22.45C56.6779 21.5 56.4445 20.3833 56.4445 19.1C56.4445 17.7333 56.7195 16.525 57.2695 15.475C57.8195 14.425 58.5779 13.6 59.5445 13C60.5279 12.4 61.6362 12.1 62.8695 12.1C63.4195 12.1 63.9612 12.175 64.4945 12.325C65.0445 12.4583 65.4779 12.6167 65.7945 12.8V9.375C65.7945 9.10833 65.7945 8.85833 65.7945 8.625C65.8112 8.375 65.8362 8.08333 65.8695 7.75C65.5695 7.76667 65.2695 7.78333 64.9695 7.8C64.6862 7.81667 64.3945 7.83333 64.0945 7.85V6.8C64.8279 6.8 65.3945 6.76667 65.7945 6.7C66.1945 6.63333 66.4945 6.55 66.6945 6.45C66.9112 6.35 67.0779 6.24167 67.1945 6.125H67.9195V22.35C67.9195 22.6167 67.9112 22.8833 67.8945 23.15C67.8779 23.4167 67.8529 23.7167 67.8195 24.05C68.1195 24.0333 68.4112 24.0167 68.6945 24C68.9945 23.9833 69.2945 23.9667 69.5945 23.95V25H66.0195C65.9362 24.55 65.8779 24.1167 65.8445 23.7C65.3779 24.2167 64.8029 24.6333 64.1195 24.95C63.4362 25.25 62.6779 25.4 61.8445 25.4ZM62.7445 24.175C63.2945 24.175 63.8445 24.0167 64.3945 23.7C64.9612 23.3833 65.4279 22.9917 65.7945 22.525C65.7779 22.325 65.7695 22.1167 65.7695 21.9C65.7695 21.6667 65.7695 21.4167 65.7695 21.15L65.7945 13.95C65.3945 13.65 64.9529 13.4333 64.4695 13.3C64.0029 13.15 63.5195 13.075 63.0195 13.075C62.1862 13.075 61.4612 13.3167 60.8445 13.8C60.2279 14.2833 59.7612 14.9583 59.4445 15.825C59.1279 16.6917 58.9862 17.7083 59.0195 18.875C59.0529 19.8917 59.2112 20.8 59.4945 21.6C59.7945 22.4 60.2112 23.0333 60.7445 23.5C61.2945 23.95 61.9612 24.175 62.7445 24.175ZM77.6359 25.4C76.4693 25.4 75.4109 25.1333 74.4609 24.6C73.5109 24.05 72.7526 23.3 72.1859 22.35C71.6359 21.3833 71.3609 20.2833 71.3609 19.05C71.3609 17.7333 71.6359 16.55 72.1859 15.5C72.7359 14.45 73.4859 13.625 74.4359 13.025C75.3859 12.4083 76.4526 12.1 77.6359 12.1C78.8026 12.1 79.8609 12.3833 80.8109 12.95C81.7609 13.5 82.5193 14.25 83.0859 15.2C83.6526 16.15 83.9359 17.2333 83.9359 18.45C83.9359 19.7333 83.6526 20.9083 83.0859 21.975C82.5359 23.025 81.7859 23.8583 80.8359 24.475C79.8859 25.0917 78.8193 25.4 77.6359 25.4ZM77.8359 24.4C78.7193 24.4 79.4193 24.15 79.9359 23.65C80.4526 23.15 80.8193 22.5 81.0359 21.7C81.2693 20.9 81.3859 20.0583 81.3859 19.175C81.3859 18.425 81.3109 17.6917 81.1609 16.975C81.0276 16.2417 80.8109 15.5833 80.5109 15C80.2109 14.4 79.8193 13.925 79.3359 13.575C78.8693 13.225 78.3026 13.05 77.6359 13.05C76.7693 13.05 76.0609 13.3 75.5109 13.8C74.9609 14.3 74.5526 14.95 74.2859 15.75C74.0359 16.55 73.9109 17.4083 73.9109 18.325C73.9109 19.3583 74.0526 20.3417 74.3359 21.275C74.6193 22.1917 75.0526 22.9417 75.6359 23.525C76.2193 24.1083 76.9526 24.4 77.8359 24.4ZM91.3773 25V24.175C91.8773 24.175 92.2607 24.0417 92.5273 23.775C92.794 23.5083 93.0107 23.1417 93.1773 22.675C93.3607 22.2083 93.569 21.6667 93.8023 21.05L98.9523 7.025H99.5523L105.127 21.25C105.261 21.6 105.411 22.05 105.577 22.6C105.744 23.15 105.811 23.6167 105.777 24C106.061 23.9833 106.344 23.9667 106.627 23.95C106.911 23.9333 107.194 23.9167 107.477 23.9V25H101.752V24.175C102.386 24.1583 102.802 24.0167 103.002 23.75C103.202 23.4833 103.277 23.1667 103.227 22.8C103.177 22.4333 103.094 22.1 102.977 21.8L102.102 19.45L95.6023 19.6L94.7273 22.275C94.6107 22.675 94.5023 22.9917 94.4023 23.225C94.319 23.4583 94.219 23.7167 94.1023 24C94.4357 23.9833 94.7607 23.9667 95.0773 23.95C95.4107 23.9333 95.7357 23.9167 96.0523 23.9V25H91.3773ZM95.9773 18.525H101.752L99.9773 13.75C99.794 13.2333 99.6023 12.725 99.4023 12.225C99.219 11.7083 99.0357 11.1917 98.8523 10.675H98.8023C98.6357 11.1417 98.4607 11.6083 98.2773 12.075C98.1107 12.5417 97.9357 13.0167 97.7523 13.5L95.9773 18.525ZM120.894 25.4C119.744 25.4 118.702 25.1333 117.769 24.6C116.852 24.05 116.127 23.2833 115.594 22.3C115.061 21.3 114.794 20.125 114.794 18.775C114.794 17.6083 115.052 16.5167 115.569 15.5C116.102 14.4833 116.844 13.6667 117.794 13.05C118.744 12.4167 119.844 12.1 121.094 12.1C122.027 12.1 122.877 12.3 123.644 12.7C124.411 13.1 125.019 13.7083 125.469 14.525C125.936 15.3417 126.169 16.375 126.169 17.625L117.369 17.775C117.352 19.6917 117.669 21.2333 118.319 22.4C118.969 23.55 120.027 24.125 121.494 24.125C122.011 24.125 122.536 24.0333 123.069 23.85C123.619 23.6667 124.127 23.4167 124.594 23.1C125.061 22.7833 125.436 22.4333 125.719 22.05L126.319 22.55C125.869 23.25 125.327 23.8083 124.694 24.225C124.061 24.6417 123.411 24.9417 122.744 25.125C122.077 25.3083 121.461 25.4 120.894 25.4ZM117.444 16.725H123.819C123.819 16.125 123.727 15.55 123.544 15C123.377 14.4333 123.094 13.975 122.694 13.625C122.294 13.2583 121.769 13.075 121.119 13.075C120.152 13.075 119.344 13.3667 118.694 13.95C118.061 14.5167 117.644 15.4417 117.444 16.725ZM119.419 10.5L118.719 9.925L120.819 6.55C121.069 6.18333 121.311 5.975 121.544 5.925C121.777 5.85833 121.977 5.85833 122.144 5.925C122.311 5.99167 122.411 6.04167 122.444 6.075C122.511 6.125 122.586 6.23333 122.669 6.4C122.752 6.56667 122.769 6.775 122.719 7.025C122.686 7.25833 122.519 7.53333 122.219 7.85L119.419 10.5ZM135.236 25V24.175C135.87 24.1417 136.303 24 136.536 23.75C136.77 23.4833 136.895 23.125 136.911 22.675C136.945 22.2083 136.961 21.6833 136.961 21.1V10.3C136.961 9.6 136.986 9 137.036 8.5C136.736 8.51667 136.436 8.53333 136.136 8.55C135.836 8.56667 135.536 8.58333 135.236 8.6V7.5H146.836L146.961 11.875H146.136C146.136 10.8917 145.978 10.15 145.661 9.65C145.345 9.13333 144.928 8.79167 144.411 8.625C143.895 8.44167 143.32 8.35833 142.686 8.375L140.861 8.425C140.245 8.44167 139.82 8.59167 139.586 8.875C139.353 9.14167 139.22 9.5 139.186 9.95C139.153 10.4 139.136 10.9167 139.136 11.5V15.8L143.486 15.825L143.311 13.65H144.411V18.925H143.611C143.611 18.175 143.503 17.6417 143.286 17.325C143.086 17.0083 142.77 16.8167 142.336 16.75C141.903 16.6833 141.336 16.6667 140.636 16.7L139.136 16.775V22.025C139.136 22.9083 139.111 23.5667 139.061 24C139.495 23.9833 139.92 23.9667 140.336 23.95C140.77 23.9333 141.195 23.9167 141.611 23.9V25H135.236Z" fill="black"/>
<path d="M93.6719 163L91.4502 157.324H84.2969L82.0996 163H80L87.0557 145.08H88.8013L95.8203 163H93.6719ZM90.8032 155.456L88.728 149.926C88.4595 149.226 88.1828 148.368 87.8979 147.351C87.7189 148.132 87.4626 148.99 87.1289 149.926L85.0293 155.456H90.8032Z" fill="black"/>
<circle cx="88" cy="210" r="39.5" fill="#C4C4C4" fill-opacity="0.59" stroke="black"/>
<path d="M87.5288 75H85.4536V57.1533H95.4023V58.9966H87.5288V65.5273H94.9263V67.3706H87.5288V75Z" fill="black"/>
</svg>
